<?xml version="1.0" standalone="no"?><!DOCTYPE svg PUBLIC "-//W3C//DTD SVG 1.1//EN" "http://www.w3.org/Graphics/SVG/1.1/DTD/svg11.dtd"><svg height="1024" node-id="1" sillyvg="true" template-height="1024" template-width="1024" version="1.1" viewBox="0 0 1024 1024" width="1024" xmlns="http://www.w3.org/2000/svg" xmlns:xlink="http://www.w3.org/1999/xlink"><defs node-id="95"><linearGradient gradientUnits="objectBoundingBox" id="paint0_linear_1515_111045" node-id="35" spreadMethod="pad" x1="506" x2="506" y1="635" y2="890"><stop offset="0" stop-color="#bddfff"></stop><stop offset="0.95892" stop-color="#ffffff" stop-opacity="0"></stop></linearGradient><linearGradient gradientUnits="objectBoundingBox" id="paint1_linear_1515_111045" node-id="38" spreadMethod="pad" x1="229.66" x2="229.66" y1="754.678" y2="615.257"><stop offset="0" stop-color="#5fb2ff"></stop><stop offset="0.7893" stop-color="#dff0ff"></stop></linearGradient><linearGradient gradientUnits="objectBoundingBox" id="paint2_linear_1515_111045" node-id="41" spreadMethod="pad" x1="229.661" x2="229.661" y1="630.738" y2="784.347"><stop offset="0" stop-color="#dff0ff"></stop><stop offset="0.818" stop-color="#a2d2ff"></stop></linearGradient><linearGradient gradientUnits="objectBoundingBox" id="paint3_linear_1515_111045" node-id="44" spreadMethod="pad" x1="883.842" x2="847.534" y1="720.042" y2="802.968"><stop offset="0.365159" stop-color="#c4e3ff"></stop><stop offset="1" stop-color="#5fb2ff"></stop></linearGradient><linearGradient gradientUnits="objectBoundingBox" id="paint4_linear_1515_111045" node-id="47" spreadMethod="pad" x1="819.285" x2="808.084" y1="266.823" y2="371.111"><stop offset="0" stop-color="#6cb8ff"></stop><stop offset="1" stop-color="#a2d2ff"></stop></linearGradient><linearGradient gradientUnits="objectBoundingBox" id="paint5_linear_1515_111045" node-id="50" spreadMethod="pad" x1="819.285" x2="808.084" y1="266.823" y2="371.111"><stop offset="0" stop-color="#6cb8ff"></stop><stop offset="1" stop-color="#a2d2ff"></stop></linearGradient><linearGradient gradientUnits="objectBoundingBox" id="paint6_linear_1515_111045" node-id="53" spreadMethod="pad" x1="790.181" x2="795.784" y1="249.857" y2="354.595"><stop offset="0" stop-color="#6cb8ff"></stop><stop offset="1" stop-color="#a2d2ff"></stop></linearGradient><linearGradient gradientUnits="objectBoundingBox" id="paint7_linear_1515_111045" node-id="56" spreadMethod="pad" x1="691.99" x2="742.375" y1="81.7917" y2="173.785"><stop offset="0" stop-color="#6cb8ff"></stop><stop offset="1" stop-color="#a2d2ff"></stop></linearGradient><linearGradient gradientUnits="objectBoundingBox" id="paint8_linear_1515_111045" node-id="59" spreadMethod="pad" x1="433.736" x2="433.736" y1="531.478" y2="553.445"><stop offset="0" stop-color="#ffcda5"></stop><stop offset="1" stop-color="#ffe8d1"></stop></linearGradient><linearGradient gradientUnits="objectBoundingBox" id="paint9_linear_1515_111045" node-id="62" spreadMethod="pad" x1="433.612" x2="462.939" y1="479.418" y2="534.038"><stop offset="0" stop-color="#fff2df"></stop><stop offset="1" stop-color="#fee0bc"></stop></linearGradient><linearGradient gradientUnits="objectBoundingBox" id="paint10_linear_1515_111045" node-id="65" spreadMethod="pad" x1="450.509" x2="407.206" y1="484.167" y2="521.182"><stop offset="0" stop-color="#777ca7"></stop><stop offset="1" stop-color="#636681"></stop></linearGradient><linearGradient gradientUnits="objectBoundingBox" id="paint11_linear_1515_111045" node-id="68" spreadMethod="pad" x1="432.104" x2="436.822" y1="509.597" y2="463.308"><stop offset="0.0403741" stop-color="#646464"></stop><stop offset="1" stop-color="#534f3f"></stop></linearGradient><linearGradient gradientUnits="objectBoundingBox" id="paint12_linear_1515_111045" node-id="71" spreadMethod="pad" x1="513.884" x2="507.952" y1="628.352" y2="643.828"><stop offset="0" stop-color="#fee4c3"></stop><stop offset="1" stop-color="#ffd1ac"></stop></linearGradient><linearGradient gradientUnits="objectBoundingBox" id="paint13_linear_1515_111045" node-id="74" spreadMethod="pad" x1="456.754" x2="508.192" y1="534.017" y2="641.78"><stop offset="0" stop-color="#ffe194"></stop><stop offset="1" stop-color="#ffbf84"></stop></linearGradient><linearGradient gradientUnits="objectBoundingBox" id="paint14_linear_1515_111045" node-id="77" spreadMethod="pad" x1="465.733" x2="402.245" y1="528.8" y2="659.35"><stop offset="0" stop-color="#ffe194"></stop><stop offset="1" stop-color="#ffbf84"></stop></linearGradient><linearGradient gradientUnits="objectBoundingBox" id="paint15_linear_1515_111045" node-id="80" spreadMethod="pad" x1="524.455" x2="505" y1="597.4" y2="645"><stop offset="0" stop-color="#94cbff"></stop><stop offset="1" stop-color="#dceeff"></stop></linearGradient><linearGradient gradientUnits="objectBoundingBox" id="paint16_linear_1515_111045" node-id="83" spreadMethod="pad" x1="54.792206" x2="4.9369206" y1="-0.09341919" y2="0.66947186"><stop offset="0" stop-color="#dceeff"></stop><stop offset="1" stop-color="#94cbff"></stop></linearGradient><linearGradient gradientUnits="objectBoundingBox" id="paint17_linear_1515_111045" node-id="86" spreadMethod="pad" x1="482.74" x2="476.807" y1="631.875" y2="647.351"><stop offset="0" stop-color="#fee4c3"></stop><stop offset="1" stop-color="#ffd1ac"></stop></linearGradient><linearGradient gradientUnits="objectBoundingBox" id="paint18_linear_1515_111045" node-id="89" spreadMethod="pad" x1="467.388" x2="422.816" y1="536.19" y2="649.363"><stop offset="0" stop-color="#ffe194"></stop><stop offset="1" stop-color="#ffbf84"></stop></linearGradient><clipPath id="clip0_1515_111045" node-id="92"><path d="M 0.00 0.00 L 1024.00 0.00 L 1024.00 1024.00 L 0.00 1024.00 Z" fill="#000000" fill-rule="nonzero" node-id="212" stroke="none" target-height="1024" target-width="1024" target-x="0" target-y="0"></path></clipPath></defs><g clip-path="url(#clip0_1515_111045)" id="sillyvg_g_0" node-id="216"><path d="M 973.00 762.50 L 972.80 766.60 L 972.00 770.70 L 970.80 774.80 L 969.10 779.00 L 966.80 783.20 L 963.90 787.50 L 960.30 792.10 L 955.90 796.70 L 950.60 801.50 L 944.50 806.30 L 937.50 811.30 L 928.70 816.70 L 918.80 822.10 L 907.40 827.70 L 894.50 833.20 L 881.90 838.10 L 868.10 843.00 L 852.90 847.90 L 836.20 852.70 L 802.60 861.00 L 765.10 868.60 L 726.40 874.90 L 684.70 880.30 L 656.60 883.20 L 627.50 885.60 L 597.50 887.50 L 567.50 888.90 L 537.00 889.70 L 506.00 890.00 L 475.00 889.70 L 444.50 888.90 L 414.50 887.50 L 384.50 885.60 L 355.40 883.20 L 327.30 880.30 L 285.60 874.90 L 246.90 868.60 L 209.40 861.00 L 175.80 852.70 L 159.10 847.90 L 143.90 843.00 L 130.10 838.10 L 117.50 833.20 L 104.60 827.70 L 93.20 822.10 L 83.30 816.70 L 74.50 811.30 L 67.50 806.30 L 61.40 801.50 L 56.10 796.70 L 51.70 792.10 L 48.10 787.50 L 45.20 783.20 L 42.90 779.00 L 41.20 774.80 L 40.00 770.70 L 39.20 766.60 L 39.00 762.50 L 39.20 758.40 L 40.00 754.30 L 41.20 750.20 L 42.90 746.00 L 45.20 741.80 L 48.10 737.50 L 51.70 732.90 L 56.10 728.30 L 61.40 723.50 L 67.50 718.70 L 74.50 713.70 L 83.30 708.30 L 93.20 702.90 L 104.60 697.30 L 117.50 691.80 L 130.10 686.90 L 143.90 682.00 L 159.10 677.10 L 175.80 672.30 L 209.40 664.00 L 246.90 656.40 L 285.60 650.10 L 327.30 644.70 L 355.40 641.80 L 384.50 639.40 L 414.50 637.50 L 444.50 636.10 L 475.00 635.30 L 506.00 635.00 L 537.00 635.30 L 567.50 636.10 L 597.50 637.50 L 627.50 639.40 L 656.60 641.80 L 684.70 644.70 L 726.40 650.10 L 765.10 656.40 L 802.60 664.00 L 836.20 672.30 L 852.90 677.10 L 868.10 682.00 L 881.90 686.90 L 894.50 691.80 L 907.40 697.30 L 918.80 702.90 L 928.70 708.30 L 937.50 713.70 L 944.50 718.70 L 950.60 723.50 L 955.90 728.30 L 960.30 732.90 L 963.90 737.50 L 966.80 741.80 L 969.10 746.00 L 970.80 750.20 L 972.00 754.30 L 972.80 758.40 L 973.00 762.50 Z" fill="url(#paint0_linear_1515_111045)" fill-rule="nonzero" node-id="218" stroke="none" target-height="255" target-width="934" target-x="39" target-y="635"></path><path d="M 230.50 615.50 L 230.20 615.30 L 229.90 615.50 L 226.90 622.60 L 218.30 645.90 L 211.50 667.50 L 208.30 679.50 L 205.40 691.70 L 203.00 704.10 L 201.80 712.40 L 200.20 730.20 L 200.60 735.20 L 201.30 738.20 L 202.60 741.60 L 203.90 743.70 L 207.60 748.00 L 209.90 749.80 L 212.90 751.40 L 216.60 752.80 L 220.50 753.80 L 225.20 754.40 L 231.00 754.70 L 235.40 754.40 L 242.30 753.00 L 245.00 751.90 L 248.50 749.90 L 251.30 747.70 L 253.40 745.20 L 255.20 742.40 L 257.60 736.60 L 258.60 732.10 L 259.00 728.00 L 258.90 716.50 L 257.40 704.80 L 255.60 695.60 L 253.20 685.60 L 247.70 665.50 L 241.60 646.50 L 230.50 615.50 Z" fill="url(#paint1_linear_1515_111045)" fill-rule="nonzero" node-id="220" stroke="none" target-height="139.40002" target-width="58.800003" target-x="200.2" target-y="615.3"></path><path d="M 229.70 784.30 L 228.90 784.00 L 228.60 783.30 L 228.60 631.80 L 228.90 631.00 L 229.70 630.70 L 230.40 631.00 L 230.70 631.80 L 230.70 783.30 L 230.40 784.00 L 229.70 784.30 Z" fill="url(#paint2_linear_1515_111045)" fill-rule="nonzero" node-id="222" stroke="none" target-height="153.59998" target-width="2.0999908" target-x="228.6" target-y="630.7"></path><path d="M 869.40 810.70 L 876.50 808.00 L 879.90 806.20 L 883.30 803.80 L 886.60 801.00 L 890.80 795.80 L 891.90 792.80 L 891.70 791.30 L 890.20 789.40 L 888.00 788.50 L 886.20 788.50 L 883.50 789.00 L 879.20 790.50 L 870.90 794.80 L 870.30 794.80 L 869.30 794.30 L 868.80 793.30 L 868.80 792.70 L 870.30 790.40 L 872.70 788.30 L 882.60 781.40 L 890.70 774.50 L 894.20 770.10 L 895.40 767.60 L 896.00 765.10 L 895.60 762.50 L 893.80 760.60 L 892.50 760.00 L 890.40 759.60 L 888.20 759.80 L 883.70 761.50 L 881.60 762.90 L 878.80 765.30 L 873.10 770.90 L 869.80 773.30 L 868.00 774.00 L 866.00 774.40 L 864.00 774.00 L 863.30 773.30 L 862.80 771.30 L 863.30 769.30 L 873.00 757.80 L 876.50 752.90 L 879.40 747.70 L 881.00 744.00 L 882.20 740.20 L 883.00 736.20 L 883.20 732.20 L 882.90 728.30 L 882.00 724.40 L 880.70 721.20 L 878.60 718.40 L 877.20 717.30 L 874.00 716.10 L 872.30 716.10 L 869.40 717.10 L 866.50 719.90 L 863.60 725.20 L 862.30 728.50 L 860.40 737.40 L 858.20 756.20 L 856.90 760.60 L 855.10 763.20 L 853.70 763.30 L 852.30 761.90 L 848.10 748.80 L 846.80 746.00 L 843.90 742.10 L 840.90 740.30 L 839.20 740.10 L 837.80 740.30 L 835.40 741.60 L 834.00 743.30 L 833.00 745.30 L 832.60 747.40 L 832.70 749.60 L 833.60 753.90 L 835.10 757.60 L 837.00 761.10 L 839.20 764.50 L 844.50 770.90 L 845.60 772.70 L 846.30 774.70 L 846.30 776.10 L 845.40 778.80 L 844.50 779.90 L 843.40 780.60 L 842.10 780.70 L 840.70 780.30 L 830.70 774.80 L 826.80 773.70 L 824.90 773.80 L 823.00 774.40 L 820.70 776.20 L 819.40 779.00 L 819.00 780.80 L 819.00 782.70 L 820.00 786.10 L 824.10 793.50 L 827.40 798.30 L 830.10 801.60 L 833.10 804.50 L 838.20 808.40 L 841.60 810.20 L 845.80 811.70 L 852.20 812.90 L 860.00 812.70 L 864.40 812.00 L 869.40 810.70 Z" fill="url(#paint3_linear_1515_111045)" fill-rule="nonzero" node-id="224" stroke="none" target-height="96.80005" target-width="77" target-x="819" target-y="716.1"></path><path d="M 745.30 275.40 L 752.60 278.10 L 759.20 281.10 L 765.10 284.30 L 770.50 287.70 L 775.20 291.20 L 779.50 294.90 L 783.70 299.30 L 787.40 303.70 L 790.40 308.10 L 792.90 312.60 L 794.80 317.10 L 796.30 321.70 L 797.40 326.60 L 798.00 331.50 L 798.10 336.30 L 797.70 341.10 L 796.80 346.00 L 795.40 350.90 L 793.30 356.10 L 790.90 360.90 L 788.20 365.10 L 785.20 369.00 L 781.90 372.40 L 778.20 375.40 L 774.20 378.10 L 769.30 380.70 L 764.10 382.70 L 758.50 384.30 L 752.40 385.40 L 745.80 385.90 L 738.70 385.80 L 744.30 388.70 L 749.40 391.90 L 753.90 395.40 L 757.90 399.10 L 761.40 403.20 L 764.50 407.50 L 767.10 412.20 L 769.00 416.40 L 770.40 420.70 L 771.30 425.20 L 771.70 430.00 L 771.60 435.00 L 771.00 440.30 L 769.80 446.00 L 767.90 452.10 L 765.70 457.70 L 763.00 463.00 L 759.90 467.90 L 756.40 472.50 L 752.40 476.70 L 747.90 480.70 L 743.20 484.10 L 738.10 487.00 L 732.60 489.50 L 726.60 491.50 L 720.20 493.10 L 713.20 494.10 L 706.50 494.60 L 699.60 494.50 L 692.30 493.90 L 684.70 492.60 L 676.70 490.70 L 668.20 488.10 L 659.90 484.90 L 652.30 481.40 L 645.30 477.50 L 639.00 473.20 L 633.20 468.60 L 627.90 463.70 L 623.10 458.30 L 618.80 452.60 L 615.00 446.50 L 611.60 440.00 L 608.60 433.00 L 643.00 416.80 L 646.70 423.70 L 650.40 429.60 L 654.10 434.60 L 657.80 438.80 L 662.10 442.50 L 666.90 445.70 L 672.20 448.50 L 678.00 450.80 L 682.90 452.30 L 687.50 453.10 L 691.80 453.30 L 696.00 453.00 L 699.90 452.20 L 703.70 450.90 L 707.30 449.10 L 710.50 446.80 L 713.30 444.00 L 715.90 440.70 L 718.10 436.80 L 720.00 432.20 L 721.40 427.30 L 722.20 423.00 L 722.50 419.10 L 722.30 415.60 L 721.70 412.40 L 720.70 409.50 L 719.20 406.80 L 717.20 404.00 L 714.60 401.20 L 711.40 398.50 L 707.40 396.00 L 702.60 393.60 L 696.80 391.30 L 679.90 385.50 L 696.40 354.30 L 712.90 359.70 L 717.30 360.60 L 721.40 360.80 L 725.20 360.60 L 728.70 359.90 L 732.10 358.80 L 735.30 357.20 L 738.10 355.20 L 740.70 352.70 L 743.00 349.70 L 745.00 346.10 L 746.70 341.90 L 747.80 338.00 L 748.30 334.40 L 748.30 331.10 L 747.80 328.00 L 746.90 325.00 L 743.60 319.40 L 741.40 316.90 L 738.70 314.60 L 735.60 312.50 L 731.90 310.60 L 727.60 308.90 L 722.30 307.30 L 717.00 306.40 L 711.50 306.00 L 705.90 306.10 L 700.10 306.90 L 694.20 308.20 L 688.00 310.20 L 681.50 312.90 L 666.80 279.10 L 674.70 275.90 L 682.50 273.30 L 690.20 271.40 L 698.00 270.10 L 705.70 269.40 L 713.50 269.30 L 721.30 269.90 L 729.20 271.10 L 737.20 272.90 L 745.30 275.40 Z" fill="url(#paint4_linear_1515_111045)" fill-rule="nonzero" node-id="226" stroke="none" target-height="225.30002" target-width="189.5" target-x="608.6" target-y="269.3"></path><path d="M 745.30 275.40 L 752.60 278.10 L 759.20 281.10 L 765.10 284.30 L 770.50 287.70 L 775.20 291.20 L 779.50 294.90 L 783.70 299.30 L 787.40 303.70 L 790.40 308.10 L 792.90 312.60 L 794.80 317.10 L 796.30 321.70 L 797.40 326.60 L 798.00 331.50 L 798.10 336.30 L 797.70 341.10 L 796.80 346.00 L 795.40 350.90 L 793.30 356.10 L 790.90 360.90 L 788.20 365.10 L 785.20 369.00 L 781.90 372.40 L 778.20 375.40 L 774.20 378.10 L 769.30 380.70 L 764.10 382.70 L 758.50 384.30 L 752.40 385.40 L 745.80 385.90 L 738.70 385.80 L 744.30 388.70 L 749.40 391.90 L 753.90 395.40 L 757.90 399.10 L 761.40 403.20 L 764.50 407.50 L 767.10 412.20 L 769.00 416.40 L 770.40 420.70 L 771.30 425.20 L 771.70 430.00 L 771.60 435.00 L 771.00 440.30 L 769.80 446.00 L 767.90 452.10 L 765.70 457.70 L 763.00 463.00 L 759.90 467.90 L 756.40 472.50 L 752.40 476.70 L 747.90 480.70 L 743.20 484.10 L 738.10 487.00 L 732.60 489.50 L 726.60 491.50 L 720.20 493.10 L 713.20 494.10 L 706.50 494.60 L 699.60 494.50 L 692.30 493.90 L 684.70 492.60 L 676.70 490.70 L 668.20 488.10 L 659.90 484.90 L 652.30 481.40 L 645.30 477.50 L 639.00 473.20 L 633.20 468.60 L 627.90 463.70 L 623.10 458.30 L 618.80 452.60 L 615.00 446.50 L 611.60 440.00 L 608.60 433.00 L 643.00 416.80 L 646.70 423.70 L 650.40 429.60 L 654.10 434.60 L 657.80 438.80 L 662.10 442.50 L 666.90 445.70 L 672.20 448.50 L 678.00 450.80 L 682.90 452.30 L 687.50 453.10 L 691.80 453.30 L 696.00 453.00 L 699.90 452.20 L 703.70 450.90 L 707.30 449.10 L 710.50 446.80 L 713.30 444.00 L 715.90 440.70 L 718.10 436.80 L 720.00 432.20 L 721.40 427.30 L 722.20 423.00 L 722.50 419.10 L 722.30 415.60 L 721.70 412.40 L 720.70 409.50 L 719.20 406.80 L 717.20 404.00 L 714.60 401.20 L 711.40 398.50 L 707.40 396.00 L 702.60 393.60 L 696.80 391.30 L 679.90 385.50 L 696.40 354.30 L 712.90 359.70 L 717.30 360.60 L 721.40 360.80 L 725.20 360.60 L 728.70 359.90 L 732.10 358.80 L 735.30 357.20 L 738.10 355.20 L 740.70 352.70 L 743.00 349.70 L 745.00 346.10 L 746.70 341.90 L 747.80 338.00 L 748.30 334.40 L 748.30 331.10 L 747.80 328.00 L 746.90 325.00 L 743.60 319.40 L 741.40 316.90 L 738.70 314.60 L 735.60 312.50 L 731.90 310.60 L 727.60 308.90 L 722.30 307.30 L 717.00 306.40 L 711.50 306.00 L 705.90 306.10 L 700.10 306.90 L 694.20 308.20 L 688.00 310.20 L 681.50 312.90 L 666.80 279.10 L 674.70 275.90 L 682.50 273.30 L 690.20 271.40 L 698.00 270.10 L 705.70 269.40 L 713.50 269.30 L 721.30 269.90 L 729.20 271.10 L 737.20 272.90 L 745.30 275.40 Z" fill="url(#paint5_linear_1515_111045)" fill-rule="nonzero" node-id="228" stroke="none" target-height="225.30002" target-width="189.5" target-x="608.6" target-y="269.3"></path><path d="M 538.40 238.90 L 545.70 240.40 L 552.40 242.40 L 558.60 244.70 L 564.30 247.50 L 569.50 250.60 L 574.40 254.10 L 578.80 258.00 L 582.90 262.30 L 586.60 267.00 L 590.00 272.20 L 593.00 277.90 L 595.70 284.00 L 598.00 290.50 L 599.90 297.50 L 601.30 305.10 L 602.40 313.20 L 602.90 322.00 L 602.90 331.40 L 602.40 341.50 L 601.30 352.40 L 599.50 364.10 L 597.20 375.60 L 594.60 386.20 L 591.70 395.90 L 588.60 404.70 L 585.10 412.80 L 581.40 420.10 L 577.50 426.70 L 573.30 432.80 L 569.00 438.20 L 564.40 443.10 L 559.60 447.50 L 554.60 451.30 L 549.50 454.50 L 544.20 457.30 L 538.70 459.50 L 533.00 461.20 L 527.00 462.40 L 520.70 463.00 L 514.10 463.20 L 507.10 462.80 L 499.70 461.80 L 492.50 460.20 L 485.80 458.30 L 479.60 455.90 L 473.90 453.20 L 468.60 450.00 L 463.80 446.50 L 459.30 442.50 L 455.10 438.20 L 451.40 433.40 L 448.00 428.10 L 444.90 422.40 L 442.20 416.20 L 440.00 409.70 L 438.20 402.60 L 436.80 395.00 L 435.80 386.90 L 435.30 378.20 L 435.30 368.80 L 435.80 358.70 L 436.90 347.80 L 438.70 336.20 L 441.00 324.60 L 443.60 313.90 L 446.50 304.20 L 449.70 295.30 L 453.10 287.30 L 456.70 280.00 L 460.60 273.40 L 464.70 267.40 L 469.00 262.00 L 473.50 257.20 L 478.30 252.80 L 483.30 249.10 L 488.50 245.90 L 493.80 243.20 L 499.40 241.10 L 505.10 239.40 L 511.10 238.20 L 517.50 237.60 L 524.10 237.40 L 531.00 237.90 L 538.40 238.90 Z M 532.00 275.80 L 528.40 275.30 L 525.00 275.40 L 521.90 275.90 L 519.00 276.70 L 516.30 278.00 L 513.80 279.70 L 511.20 282.10 L 508.50 285.30 L 505.80 289.40 L 503.10 294.60 L 500.30 301.10 L 497.80 308.70 L 495.20 318.40 L 492.60 330.40 L 489.80 345.10 L 487.40 359.80 L 485.90 372.10 L 485.10 382.20 L 484.80 390.30 L 485.30 397.40 L 486.10 403.20 L 487.20 408.00 L 488.70 411.90 L 490.30 415.00 L 492.10 417.50 L 494.30 419.60 L 496.70 421.40 L 499.40 422.90 L 502.60 424.10 L 506.10 424.90 L 510.50 425.30 L 514.40 425.20 L 518.00 424.40 L 521.30 423.10 L 524.30 421.20 L 526.90 418.80 L 529.50 415.70 L 532.20 411.50 L 534.80 406.30 L 537.40 399.80 L 540.10 392.00 L 542.80 382.20 L 545.60 370.10 L 548.40 355.20 L 550.80 340.30 L 552.20 328.00 L 552.90 318.00 L 553.00 309.90 L 552.80 302.70 L 552.00 296.90 L 550.90 292.10 L 549.50 288.30 L 547.90 285.30 L 545.60 282.50 L 543.00 280.20 L 539.90 278.30 L 536.30 276.80 L 532.00 275.80 Z" fill="url(#paint6_linear_1515_111045)" fill-rule="nonzero" node-id="230" stroke="none" target-height="225.80002" target-width="167.60004" target-x="435.3" target-y="237.4"></path><path d="M 385.20 343.80 L 395.50 380.10 L 372.10 386.70 L 384.80 431.70 L 337.40 445.10 L 324.40 400.30 L 236.60 425.10 L 227.40 392.80 L 248.00 239.90 L 293.70 243.70 L 276.50 374.60 L 314.70 363.80 L 306.00 313.00 L 347.80 301.20 L 361.80 350.40 L 385.20 343.80 Z" fill="url(#paint7_linear_1515_111045)" fill-rule="nonzero" node-id="232" stroke="none" target-height="205.20001" target-width="168.1" target-x="227.4" target-y="239.9"></path><path d="M 314.00 617.20 L 525.80 740.70 L 525.80 803.00 L 314.00 679.50 L 314.00 617.20 Z" fill="#b8d9f6" fill-rule="nonzero" node-id="234" stroke="none" target-height="185.79999" target-width="211.79999" target-x="314" target-y="617.2"></path><path d="M 332.20 645.70 L 468.00 725.30 L 468.00 735.40 L 332.20 655.80 L 332.20 645.70 Z M 332.20 666.50 L 468.00 746.10 L 468.00 756.20 L 332.20 676.60 L 332.20 666.50 Z M 480.50 731.90 L 505.50 746.90 L 505.50 775.00 L 480.50 760.10 L 480.50 731.90 Z" fill="#5ca8ea" fill-rule="nonzero" node-id="236" stroke="none" target-height="129.29999" target-width="173.29999" target-x="332.2" target-y="645.7"></path><path d="M 710.30 633.70 L 525.80 740.70 L 525.80 803.00 L 710.30 695.20 L 710.30 633.70 Z" fill="#99c9f2" fill-rule="nonzero" node-id="238" stroke="none" target-height="169.29999" target-width="184.5" target-x="525.8" target-y="633.7"></path><path d="M 710.30 633.70 L 497.40 512.00 L 314.00 617.20 L 525.80 740.40 L 710.30 633.70 Z" fill="#e0effb" fill-rule="nonzero" node-id="240" stroke="none" target-height="228.40002" target-width="396.3" target-x="314" target-y="512"></path><path d="M 491.00 820.50 L 490.70 822.00 L 490.00 823.40 L 488.70 824.90 L 486.60 826.50 L 483.60 828.20 L 479.60 829.80 L 474.50 831.50 L 463.30 833.80 L 456.50 834.80 L 442.40 835.80 L 434.50 836.00 L 426.60 835.80 L 412.50 834.80 L 405.70 833.80 L 394.50 831.50 L 389.40 829.80 L 385.40 828.20 L 382.40 826.50 L 380.30 824.90 L 379.00 823.40 L 378.30 822.00 L 378.00 820.50 L 378.30 819.00 L 379.00 817.60 L 380.30 816.10 L 382.40 814.50 L 385.40 812.80 L 389.40 811.20 L 394.50 809.50 L 405.70 807.20 L 412.50 806.20 L 426.60 805.20 L 434.50 805.00 L 442.40 805.20 L 456.50 806.20 L 463.30 807.20 L 474.50 809.50 L 479.60 811.20 L 483.60 812.80 L 486.60 814.50 L 488.70 816.10 L 490.00 817.60 L 490.70 819.00 L 491.00 820.50 Z" fill="#7d7d7d" fill-opacity="0.1" fill-rule="nonzero" node-id="242" stroke="none" target-height="31" target-width="113" target-x="378" target-y="805"></path><path d="M 446.30 528.20 L 421.10 528.20 L 421.10 553.40 L 446.30 553.40 L 446.30 528.20 Z" fill="url(#paint8_linear_1515_111045)" fill-rule="nonzero" node-id="244" stroke="none" target-height="25.200012" target-width="25.199982" target-x="421.1" target-y="528.2"></path><path d="M 437.50 537.30 L 440.90 537.00 L 444.10 536.30 L 447.20 535.00 L 450.10 533.40 L 452.70 531.30 L 455.10 528.80 L 457.30 526.10 L 459.00 523.00 L 460.50 519.60 L 461.60 516.10 L 462.20 512.40 L 462.50 508.40 L 462.20 504.40 L 461.60 500.60 L 460.50 497.10 L 459.00 493.70 L 457.30 490.70 L 455.10 487.90 L 452.70 485.40 L 450.10 483.40 L 447.20 481.70 L 444.10 480.40 L 440.90 479.70 L 437.50 479.40 L 434.00 479.70 L 430.80 480.50 L 427.70 481.70 L 424.80 483.40 L 422.20 485.40 L 419.80 487.90 L 417.70 490.70 L 415.90 493.70 L 414.40 497.10 L 413.30 500.60 L 412.70 504.40 L 412.40 508.40 L 413.10 512.10 L 415.20 519.30 L 416.70 522.60 L 420.50 528.50 L 422.80 531.10 L 425.30 533.20 L 428.00 534.90 L 430.90 536.20 L 434.10 537.00 L 437.50 537.30 Z" fill="url(#paint9_linear_1515_111045)" fill-rule="nonzero" node-id="246" stroke="none" target-height="57.899994" target-width="50.100006" target-x="412.4" target-y="479.4"></path><path d="M 438.50 506.00 L 435.60 508.40 L 432.90 505.70 L 430.10 503.90 L 428.50 503.50 L 426.80 503.70 L 424.50 505.10 L 423.20 506.60 L 422.50 508.90 L 422.20 512.70 L 422.70 515.30 L 423.60 517.40 L 424.80 519.00 L 426.20 520.10 L 427.70 520.70 L 429.00 520.60 L 424.80 523.30 L 423.20 523.90 L 420.70 524.10 L 418.80 523.80 L 415.90 522.40 L 406.30 513.40 L 403.50 510.30 L 400.90 506.70 L 398.30 501.30 L 397.50 498.30 L 397.10 495.20 L 397.30 491.90 L 398.10 488.30 L 399.50 484.90 L 401.60 481.10 L 404.80 476.90 L 408.60 473.90 L 415.60 470.00 L 421.80 467.80 L 425.40 467.10 L 429.10 466.70 L 433.10 466.90 L 437.50 467.60 L 440.70 468.40 L 447.50 471.40 L 451.30 473.60 L 453.90 476.00 L 456.20 478.50 L 459.30 482.80 L 461.70 488.70 L 462.40 492.00 L 462.70 497.70 L 462.00 500.70 L 460.60 501.20 L 449.90 502.00 L 442.70 504.10 L 438.50 506.00 Z" fill="url(#paint10_linear_1515_111045)" fill-rule="evenodd" node-id="248" stroke="none" target-height="57.399963" target-width="65.600006" target-x="397.1" target-y="466.7"></path><path d="M 441.80 500.10 L 425.20 505.70 L 416.20 509.60 L 405.40 513.00 L 400.70 507.20 L 398.60 503.80 L 397.00 499.90 L 396.30 497.10 L 396.00 494.20 L 396.10 491.10 L 396.60 488.10 L 397.80 484.80 L 399.80 481.30 L 402.20 478.00 L 405.50 474.50 L 410.00 470.60 L 414.70 468.10 L 419.10 466.30 L 423.10 465.10 L 426.70 464.30 L 434.10 464.10 L 440.30 465.40 L 444.20 467.00 L 447.80 469.00 L 450.90 471.40 L 453.80 474.20 L 458.50 480.10 L 469.40 478.40 L 474.00 478.20 L 477.30 478.60 L 479.20 479.20 L 480.30 480.00 L 480.80 480.80 L 480.30 482.50 L 479.00 483.80 L 476.70 485.50 L 469.20 489.70 L 454.90 495.90 L 441.80 500.10 Z" fill="url(#paint11_linear_1515_111045)" fill-rule="evenodd" node-id="250" stroke="none" target-height="48.899994" target-width="84.79999" target-x="396" target-y="464.1"></path><path d="M 422.80 515.00 L 422.20 513.10 L 422.20 510.80 L 422.50 508.60 L 423.30 506.50 L 424.90 504.30 L 425.90 503.70 L 427.50 503.30 L 429.20 503.40 L 430.80 504.10 L 433.40 506.50 L 434.40 508.20 L 434.90 510.00 L 435.00 511.70 L 434.70 513.20 L 434.00 514.50 L 433.00 515.60 L 429.80 517.20 L 426.40 517.60 L 425.00 517.30 L 423.80 516.50 L 422.80 515.00 Z" fill="#ffe9cd" fill-rule="nonzero" node-id="252" stroke="none" target-height="14.299988" target-width="12.799988" target-x="422.2" target-y="503.3"></path><path d="M 399.90 801.20 L 410.30 803.00 L 407.80 816.90 L 397.40 815.10 Z" fill="#fee4c3" fill-rule="nonzero" group-id="1" node-id="256" stroke="none" target-height="15.700012" target-width="12.899994" target-x="397.4" target-y="801.2"></path><path d="M 424.80 821.50 L 424.60 823.00 L 424.00 824.20 L 423.00 825.10 L 421.00 826.00 L 418.20 826.50 L 411.20 826.80 L 403.40 826.60 L 399.80 826.10 L 396.90 825.20 L 395.30 824.30 L 394.10 823.10 L 393.20 821.50 L 393.00 819.30 L 393.50 817.40 L 395.20 814.60 L 396.80 812.70 L 400.20 814.00 L 402.80 814.30 L 406.70 813.70 L 409.10 812.70 L 412.70 813.60 L 419.70 816.30 L 422.30 817.90 L 423.80 819.20 L 424.60 820.40 L 424.80 821.50 Z" fill="#7b7b7b" fill-rule="nonzero" node-id="259" stroke="none" target-height="14.099976" target-width="31.799988" target-x="393" target-y="812.7"></path><path d="M 452.90 801.10 L 463.30 803.00 L 460.80 816.90 L 450.40 815.00 Z" fill="#fee4c3" fill-rule="nonzero" group-id="2" node-id="263" stroke="none" target-height="15.800049" target-width="12.899994" target-x="450.4" target-y="801.1"></path><path d="M 477.90 821.40 L 477.70 822.90 L 477.10 824.10 L 476.10 824.90 L 474.10 825.80 L 471.20 826.40 L 464.20 826.60 L 456.50 826.40 L 452.90 825.90 L 450.10 825.00 L 448.40 824.10 L 447.20 822.80 L 446.40 821.30 L 446.20 819.10 L 446.70 817.10 L 448.30 814.30 L 450.00 812.50 L 453.30 813.80 L 456.00 814.10 L 459.90 813.50 L 462.30 812.50 L 469.40 814.60 L 472.80 816.20 L 475.40 817.80 L 476.90 819.10 L 477.70 820.30 L 477.90 821.40 Z" fill="#7b7b7b" fill-rule="nonzero" node-id="266" stroke="none" target-height="14.099976" target-width="31.699982" target-x="446.2" target-y="812.5"></path><path d="M 421.40 646.10 L 413.40 646.30 L 405.60 647.00 L 406.80 671.50 L 406.60 690.90 L 406.10 701.60 L 404.10 725.60 L 401.70 749.50 L 394.70 806.60 L 412.10 806.60 L 417.70 789.80 L 423.30 771.50 L 429.40 749.20 L 432.30 737.10 L 437.20 712.00 L 438.90 699.70 L 439.80 691.50 L 440.40 676.30 L 442.40 685.90 L 444.20 697.20 L 445.60 708.80 L 447.60 733.70 L 449.20 769.40 L 449.50 807.40 L 467.80 805.90 L 471.20 774.00 L 473.00 753.90 L 474.70 732.00 L 475.80 710.00 L 476.10 697.20 L 475.70 675.30 L 475.20 666.80 L 473.60 649.50 L 464.60 648.80 L 455.60 648.80 L 446.50 649.30 L 439.90 647.70 L 432.50 646.60 L 421.40 646.10 Z" fill="#dcdcdc" fill-rule="nonzero" node-id="268" stroke="none" target-height="161.30005" target-width="81.399994" target-x="394.7" target-y="646.1"></path><path d="M 518.40 643.40 L 517.70 644.40 L 515.90 645.50 L 514.30 645.60 L 512.10 645.20 L 503.90 642.20 L 498.80 639.10 L 497.20 637.50 L 496.60 636.20 L 496.40 634.90 L 496.60 633.50 L 498.40 631.10 L 499.90 630.20 L 502.30 629.30 L 505.30 628.90 L 508.30 629.10 L 511.30 629.90 L 516.60 629.80 L 518.70 630.20 L 522.20 632.00 L 524.50 634.50 L 525.30 637.20 L 525.20 638.60 L 524.70 639.90 L 523.80 641.10 L 522.50 642.00 L 518.40 643.40 Z" fill="url(#paint12_linear_1515_111045)" fill-rule="nonzero" node-id="270" stroke="none" target-height="16.699951" target-width="28.899994" target-x="496.4" target-y="628.9"></path><path d="M 446.30 542.70 L 453.00 546.00 L 458.70 550.00 L 461.40 552.60 L 463.60 555.60 L 465.90 559.90 L 468.10 564.70 L 471.80 574.60 L 474.50 583.70 L 477.60 597.50 L 478.70 601.10 L 480.20 605.10 L 482.60 610.10 L 487.40 618.30 L 490.80 622.60 L 495.40 625.50 L 500.70 628.40 L 511.30 632.30 L 506.70 646.10 L 490.80 643.50 L 480.00 640.50 L 474.90 638.50 L 472.60 637.30 L 468.70 634.20 L 466.30 631.50 L 462.90 626.30 L 461.30 622.60 L 446.30 542.70 Z" fill="url(#paint13_linear_1515_111045)" fill-rule="evenodd" node-id="272" stroke="none" target-height="103.39996" target-width="65" target-x="446.3" target-y="542.7"></path><path d="M 446.30 541.10 L 443.70 543.70 L 441.20 545.40 L 438.90 546.40 L 436.40 546.90 L 434.00 546.90 L 431.80 546.50 L 428.60 545.20 L 425.80 543.50 L 421.60 539.40 L 421.20 539.50 L 418.40 541.20 L 413.90 545.10 L 411.00 548.20 L 408.80 552.40 L 406.40 561.80 L 405.20 569.40 L 403.30 586.70 L 402.10 606.30 L 401.30 626.60 L 400.40 662.90 L 433.20 665.00 L 458.50 665.50 L 471.30 664.60 L 475.20 663.80 L 476.90 663.20 L 478.20 661.80 L 476.60 654.60 L 475.10 643.50 L 473.70 629.60 L 469.30 576.40 L 468.00 570.60 L 464.90 562.50 L 462.80 558.20 L 460.30 553.80 L 457.40 549.80 L 454.10 546.20 L 451.60 544.10 L 449.00 542.40 L 446.30 541.10 Z" fill="url(#paint14_linear_1515_111045)" fill-rule="nonzero" node-id="274" stroke="none" target-height="126.099976" target-width="77.80002" target-x="400.4" target-y="539.4"></path><path d="M 449.70 542.90 L 447.80 541.60 L 446.10 541.20 L 443.60 543.30 L 441.20 544.70 L 438.90 545.50 L 434.10 545.90 L 431.80 545.50 L 428.60 544.40 L 425.80 543.00 L 421.40 539.40 L 420.20 539.60 L 417.80 541.20 L 421.90 544.40 L 425.50 546.60 L 428.80 548.00 L 432.20 549.00 L 435.30 549.30 L 438.00 549.20 L 443.10 547.80 L 445.10 546.80 L 447.80 544.80 L 449.70 542.90 Z" fill="#fb955b" fill-rule="nonzero" node-id="276" stroke="none" target-height="9.899963" target-width="31.900024" target-x="417.8" target-y="539.4"></path><path d="M 564.20 595.60 L 498.80 599.20 L 486.50 645.30 L 550.10 639.90 L 564.20 595.60 Z" fill="url(#paint15_linear_1515_111045)" fill-rule="nonzero" node-id="278" stroke="none" target-height="49.700012" target-width="77.70001" target-x="486.5" target-y="595.6"></path><path d="M 462.10 644.10 L 549.80 637.50 L 550.10 640.30 L 462.40 646.90 L 462.10 644.10 Z" fill="url(#paint16_linear_1515_111045)" fill-rule="nonzero" group-id="3" node-id="282" stroke="none" target-height="9.400024" target-width="87.99997" target-x="462.1" target-y="637.5"></path><path d="M 487.30 646.90 L 486.60 648.00 L 484.80 649.00 L 483.10 649.10 L 480.90 648.70 L 472.70 645.70 L 467.70 642.70 L 466.10 641.00 L 465.40 639.70 L 465.20 638.40 L 465.50 637.00 L 467.30 634.60 L 468.70 633.70 L 471.20 632.80 L 474.10 632.40 L 477.10 632.60 L 480.20 633.40 L 485.50 633.30 L 487.50 633.70 L 491.10 635.50 L 493.30 638.00 L 494.20 640.70 L 494.00 642.10 L 492.60 644.60 L 491.40 645.60 L 489.60 646.30 L 487.30 646.90 Z" fill="url(#paint17_linear_1515_111045)" fill-rule="nonzero" node-id="285" stroke="none" target-height="16.699951" target-width="29" target-x="465.2" target-y="632.4"></path><path d="M 402.10 583.50 L 402.80 575.40 L 404.60 565.90 L 407.40 556.60 L 409.10 552.40 L 410.90 549.00 L 412.30 547.00 L 414.90 544.80 L 417.50 545.30 L 422.20 547.40 L 426.80 551.40 L 429.10 554.30 L 433.00 561.10 L 435.70 568.60 L 437.00 574.50 L 438.40 586.50 L 440.20 595.50 L 442.60 601.40 L 451.60 615.90 L 454.10 618.50 L 457.00 621.00 L 463.90 625.60 L 471.20 629.50 L 479.80 632.80 L 477.80 639.00 L 474.60 646.90 L 459.30 643.30 L 451.70 640.80 L 440.80 636.20 L 434.20 632.80 L 430.50 630.50 L 426.90 627.80 L 420.30 621.50 L 414.60 614.40 L 410.90 608.80 L 407.90 603.10 L 405.30 597.50 L 402.70 588.90 L 402.10 583.50 Z" fill="url(#paint18_linear_1515_111045)" fill-rule="nonzero" node-id="287" stroke="none" target-height="102.10004" target-width="77.69998" target-x="402.1" target-y="544.8"></path></g></svg>